<svg width="16" height="16" viewBox="0 0 16 16" fill="none" xmlns="http://www.w3.org/2000/svg">
<g clip-path="url(#clip0)">
<path d="M12.4801 0.851562H7.56757C7.25665 0.851562 6.95805 0.975344 6.73805 1.19534L0.343627 7.58859C-0.114542 8.04676 -0.114542 8.78945 0.343627 9.24821L5.25619 14.1608C5.71436 14.6189 6.45705 14.6189 6.91522 14.1608L13.3096 7.76752C13.5296 7.54694 13.6534 7.24834 13.6534 6.93683V2.02485C13.6534 1.37661 13.1284 0.851562 12.4801 0.851562ZM10.4269 4.95807C9.94113 4.95807 9.54691 4.56385 9.54691 4.07811C9.54691 3.59237 9.94113 3.19814 10.4269 3.19814C10.9126 3.19814 11.3068 3.59237 11.3068 4.07811C11.3068 4.56385 10.9126 4.95807 10.4269 4.95807Z" fill="white"/>
<path d="M14.8267 2.0249L14.8262 7.48598C14.8262 7.75642 14.7188 8.0163 14.527 8.20755L8.0293 14.7052L8.12903 14.805C8.58719 15.2631 9.32989 15.2631 9.78805 14.805L15.6557 8.93851C15.8762 8.71852 16 8.41991 16 8.10899V3.19819C16 2.54995 15.475 2.0249 14.8267 2.0249Z" fill="white"/>
</g>
<defs>
<clipPath id="clip0">
<rect width="16" height="16" fill="white"/>
</clipPath>
</defs>
</svg>
