<svg width="35" height="35" viewBox="0 0 35 35" fill="none" xmlns="http://www.w3.org/2000/svg">
<path d="M6.99989 27.897C6.63959 27.7941 6.2793 27.7426 6.02194 27.5882C5.61018 27.3823 5.4043 27.022 5.4043 26.5588C5.4043 23.9338 5.4043 21.3603 5.4043 18.7353C5.4043 18.0662 5.97047 17.5 6.63959 17.5C6.74253 17.5 6.84547 17.5 6.99989 17.5C6.99989 17.397 6.99989 17.2941 6.99989 17.1912C6.99989 13.4338 6.99989 9.67645 6.99989 5.9191C6.99989 4.32351 8.08077 2.93381 9.83077 2.67645C9.93371 2.67645 10.0881 2.67645 10.1911 2.67645C14.1028 2.67645 17.9631 2.67645 21.8749 2.67645C22.0293 2.67645 22.1837 2.72792 22.2866 2.83086C24.6543 5.19851 27.0734 7.56616 29.4411 9.98528C29.544 10.0882 29.5955 10.2426 29.5955 10.397C29.5955 16.6765 29.5955 22.9559 29.5955 29.2353C29.5955 30.9853 28.2058 32.4264 26.4043 32.4264C20.9999 32.4264 15.5955 32.4264 10.1396 32.4264C8.33812 32.4264 6.94841 31.0367 6.94841 29.2353C6.99989 28.7206 6.99989 28.2573 6.99989 27.897ZM21.3602 4.58086C21.2572 4.58086 21.1543 4.58086 21.1028 4.58086C17.4999 4.58086 13.8969 4.58086 10.294 4.58086C9.36753 4.58086 8.9043 5.0441 8.9043 5.97057C8.9043 9.72792 8.9043 13.4853 8.9043 17.2426C8.9043 17.3456 8.9043 17.4485 8.9043 17.5515C9.05871 17.5515 9.16165 17.5515 9.26459 17.5515C14.1543 17.5515 18.9925 17.5515 23.8822 17.5515C24.8602 17.5515 25.3749 18.0662 25.3749 18.9926C25.3749 21.4632 25.3749 23.8823 25.3749 26.3529C25.3749 26.5073 25.3749 26.7132 25.3234 26.8676C25.169 27.4853 24.6543 27.7941 23.9337 27.7941C19.044 27.7941 14.1543 27.7941 9.26459 27.7941C9.16165 27.7941 9.05871 27.7941 8.9043 27.7941C8.9043 28.2573 8.9043 28.6691 8.9043 29.0809C8.9043 29.9559 9.36753 30.4191 10.2425 30.4191C15.5955 30.4191 20.9484 30.4191 26.2499 30.4191C27.1249 30.4191 27.5881 29.9044 27.5881 29.0294C27.5881 23.1103 27.5367 17.1397 27.5367 11.2206C27.5367 11.1176 27.5367 11.0147 27.5367 10.9117C27.3822 10.9117 27.2793 10.9117 27.1764 10.9117C25.9925 10.9117 24.7572 10.9117 23.5734 10.9117C22.8014 10.9117 22.1837 10.6029 21.7205 9.98528C21.4116 9.57351 21.3087 9.11028 21.3087 8.59557C21.3602 7.25734 21.3602 5.97057 21.3602 4.58086ZM13.3822 20.1765C13.3822 21.9265 13.3822 23.6765 13.3822 25.4265C13.4337 25.4265 13.4337 25.4779 13.4852 25.4779C14.2058 25.4779 14.9264 25.5294 15.6469 25.4779C16.5734 25.375 17.3969 25.0147 17.8087 24.0882C18.0146 23.625 18.1175 23.1617 18.1175 22.6985C18.1175 21.3088 17.3969 20.4338 16.0072 20.1765C15.1322 20.022 14.2572 20.0735 13.3822 20.1765ZM9.98518 23.5735C10.1396 23.5735 10.2425 23.5735 10.3455 23.5735C10.8087 23.5735 11.2719 23.522 11.6837 23.3162C12.3014 23.0073 12.6616 22.3897 12.6102 21.6176C12.5587 20.9485 12.1984 20.4853 11.5293 20.2794C10.6028 19.9706 9.67636 20.125 8.74989 20.2279C8.74989 22.0294 8.74989 23.7794 8.74989 25.5294C9.16165 25.5294 9.52194 25.5294 9.93371 25.5294C9.98518 24.8088 9.98518 24.1912 9.98518 23.5735ZM20.1249 23.3162C20.794 23.3162 21.4116 23.3162 22.0293 23.3162C22.0293 23.0073 22.0293 22.6985 22.0293 22.3382C21.4116 22.3382 20.7425 22.3382 20.1249 22.3382C20.1249 21.9265 20.1249 21.5147 20.1249 21.1029C20.794 21.1029 21.4631 21.1029 22.1322 21.1029C22.1322 20.7426 22.1322 20.4338 22.1322 20.125C21.0514 20.125 19.9705 20.125 18.8896 20.125C18.8896 21.9264 18.8896 23.6765 18.8896 25.4779C19.3014 25.4779 19.6617 25.4779 20.0734 25.4779C20.0734 25.1176 20.0734 24.7573 20.0734 24.397C20.1249 24.0367 20.1249 23.6765 20.1249 23.3162Z" fill="#FF0000"/>
<path d="M14.6172 24.5515C14.6172 24.5 14.6172 24.4485 14.6172 24.397C14.6172 23.3676 14.6172 22.3382 14.6172 21.3088C14.6172 21.1544 14.6687 21.0515 14.8745 21.0515C15.3892 21.0515 15.904 21.0515 16.3672 21.4117C16.9334 21.875 16.9334 22.5441 16.8819 23.2132C16.6245 24.1912 15.8525 24.7059 14.6172 24.5515Z" fill="#FF0000"/>
<path d="M9.98535 21C10.5001 20.9485 11.0148 20.8456 11.3236 21.3603C11.478 21.6176 11.4265 22.0294 11.2206 22.2868C10.9633 22.5956 10.4486 22.6985 9.98535 22.5441C9.98535 22.0809 9.98535 21.5662 9.98535 21Z" fill="#FF0000"/>
</svg>
