<svg width="35" height="35" viewBox="0 0 35 35" fill="none" xmlns="http://www.w3.org/2000/svg">
<g clip-path="url(#clip0)">
<path d="M29.5955 10.3971C29.5955 10.2427 29.544 10.0882 29.4411 9.98531C27.0734 7.61766 24.6543 5.19854 22.2866 2.8309C22.1837 2.72795 22.0293 2.67648 21.8749 2.67648C17.9631 2.67648 14.1028 2.67648 10.1911 2.67648C10.0881 2.67648 9.93371 2.67648 9.83077 2.67648C8.08077 2.93384 6.99988 4.32354 6.99988 5.91913C7.05136 9.67648 6.99988 13.4338 6.99988 17.1912C6.99988 17.2941 6.99988 17.3971 6.99988 17.5C6.84547 17.5 6.74253 17.5 6.63959 17.5C5.97047 17.5 5.4043 18.0662 5.4043 18.7353C5.4043 21.3603 5.4043 23.9338 5.4043 26.5588C5.4043 27.0221 5.61018 27.3824 6.02194 27.5882C6.33077 27.7427 6.63959 27.7941 6.99988 27.8971C6.99988 28.3088 6.99988 28.7721 6.99988 29.1838C6.99988 30.9853 8.38959 32.375 10.1911 32.375C15.5955 32.375 20.9999 32.375 26.4558 32.375C28.2058 32.375 29.6469 30.9853 29.6469 29.1838C29.5955 22.9044 29.5955 16.625 29.5955 10.3971ZM8.49253 25.478H7.1543L8.64694 22.853L7.20577 20.2794H8.544L9.00724 21.2574C9.16165 21.5662 9.26459 21.8235 9.419 22.1324C9.52194 21.8235 9.62488 21.5662 9.7793 21.2574L10.2425 20.2794H11.5808L10.0881 22.853L11.6322 25.5294H10.294L9.83077 24.603C9.62488 24.2427 9.52194 23.9853 9.36753 23.6765C9.26459 23.9853 9.11018 24.2427 8.95577 24.603L8.49253 25.478ZM26.3014 30.4191C20.9484 30.4191 15.5955 30.4191 10.294 30.4191C9.419 30.4191 8.95577 29.9559 8.95577 29.0809C8.95577 28.6691 8.95577 28.2574 8.95577 27.7941C9.11018 27.7941 9.21312 27.7941 9.31606 27.7941C14.2058 27.7941 19.0955 27.7941 23.9852 27.7941C24.7058 27.7941 25.2205 27.4853 25.3749 26.8677C25.4264 26.7132 25.4264 26.5074 25.4264 26.353C25.4264 23.8824 25.4264 21.4632 25.4264 18.9927C25.4264 18.0147 24.9116 17.5515 23.9337 17.5515C19.044 17.5515 14.2058 17.5515 9.31606 17.5515C9.21312 17.5515 9.11018 17.5515 8.95577 17.5515C8.95577 17.4485 8.95577 17.3456 8.95577 17.2427C8.95577 13.4853 8.95577 9.72795 8.95577 5.9706C8.95577 5.04413 9.419 4.58089 10.3455 4.58089C13.9484 4.58089 17.5514 4.58089 21.1543 4.58089C21.2572 4.58089 21.3087 4.58089 21.4116 4.58089C21.4116 5.9706 21.4116 7.30884 21.4116 8.64707C21.4116 9.16178 21.5146 9.62501 21.8234 10.0368C22.2866 10.6544 22.9043 10.9632 23.6764 10.9632C24.8602 10.9632 26.0955 10.9632 27.2793 10.9632C27.3822 10.9632 27.4852 10.9632 27.6396 10.9632C27.6396 11.0662 27.6396 11.1691 27.6396 11.2721C27.6396 17.1912 27.6911 23.1618 27.6911 29.0809C27.6911 29.9559 27.1763 30.4191 26.3014 30.4191ZM14.669 24.603C15.0293 24.603 15.4411 24.5 15.6469 24.4485L15.8014 25.375C15.5955 25.478 15.0808 25.6324 14.4631 25.6324C12.6616 25.6324 11.7352 24.5 11.7352 23.0074C11.7352 21.2059 13.0219 20.228 14.5661 20.228C15.1837 20.228 15.6469 20.3309 15.8528 20.4853L15.5955 21.4118C15.3381 21.3088 15.0293 21.2059 14.6175 21.2059C13.6911 21.2059 12.9705 21.7721 12.9705 22.9559C12.9705 23.9338 13.6396 24.603 14.669 24.603ZM19.8675 24.5V25.478H16.6249V20.228H17.8087V24.4485H19.8675V24.5ZM21.8749 23.2647C20.9999 22.9559 20.4337 22.4927 20.4337 21.7206C20.4337 20.8456 21.1543 20.125 22.3896 20.125C22.9558 20.125 23.419 20.228 23.7278 20.3824L23.4705 21.3603C23.2646 21.2574 22.9043 21.103 22.3896 21.103C21.8749 21.103 21.6175 21.3603 21.6175 21.6177C21.6175 21.9265 21.9264 22.0809 22.5955 22.3382C23.5219 22.6985 23.9337 23.1618 23.9337 23.8824C23.9337 24.7574 23.2646 25.5294 21.8234 25.5294C21.2058 25.5294 20.6396 25.375 20.3308 25.2206L20.5881 24.2427C20.8969 24.3971 21.4116 24.5515 21.8749 24.5515C22.4411 24.5515 22.6984 24.3456 22.6984 23.9853C22.7499 23.6765 22.4925 23.5221 21.8749 23.2647Z" fill="#50B16E"/>
</g>
<defs>
<clipPath id="clip0">
<rect width="35" height="35" fill="white"/>
</clipPath>
</defs>
</svg>
