<svg width="35" height="35" viewBox="0 0 35 35" fill="none" xmlns="http://www.w3.org/2000/svg">
<g clip-path="url(#clip0)">
<path d="M29.5955 10.397C29.5955 10.2426 29.544 10.0882 29.4411 9.98528C27.0734 7.61763 24.6543 5.19851 22.2866 2.83086C22.1837 2.72792 22.0293 2.67645 21.8749 2.67645C17.9631 2.67645 14.1028 2.67645 10.1911 2.67645C10.0881 2.67645 9.93371 2.67645 9.83077 2.67645C8.08077 2.93381 6.99989 4.32351 6.99989 5.9191C7.05136 9.67645 6.99989 13.4338 6.99989 17.1912C6.99989 17.2941 6.99989 17.397 6.99989 17.5C6.84547 17.5 6.74253 17.5 6.63959 17.5C5.97047 17.5 5.4043 18.0662 5.4043 18.7353C5.4043 21.3603 5.4043 23.9338 5.4043 26.5588C5.4043 27.022 5.61018 27.3823 6.02194 27.5882C6.33077 27.7426 6.63959 27.7941 6.99989 27.897C6.99989 28.3088 6.99989 28.772 6.99989 29.1838C6.99989 30.9853 8.38959 32.375 10.1911 32.375C15.5955 32.375 20.9999 32.375 26.4558 32.375C28.2058 32.375 29.6469 30.9853 29.6469 29.1838C29.5955 22.9044 29.5955 16.625 29.5955 10.397ZM8.49253 20.022C8.9043 19.9706 9.47047 19.9191 10.0881 19.9191C11.0661 19.9191 11.7352 20.0735 12.2499 20.4853C12.8161 20.897 13.1249 21.5147 13.1249 22.4412C13.1249 23.4191 12.7646 24.1397 12.2499 24.5515C11.6837 25.0147 10.8602 25.2206 9.83077 25.2206C9.21312 25.2206 8.80136 25.1691 8.49253 25.1176V20.022ZM26.3014 30.4191C20.9484 30.4191 15.5955 30.4191 10.294 30.4191C9.419 30.4191 8.95577 29.9559 8.95577 29.0809C8.95577 28.6691 8.95577 28.2573 8.95577 27.7941C9.11018 27.7941 9.21312 27.7941 9.31606 27.7941C14.2058 27.7941 19.0955 27.7941 23.9852 27.7941C24.7058 27.7941 25.2205 27.4853 25.3749 26.8676C25.4264 26.7132 25.4264 26.5073 25.4264 26.3529C25.4264 23.8823 25.4264 21.4632 25.4264 18.9926C25.4264 18.0147 24.9116 17.5514 23.9337 17.5514C19.044 17.5514 14.2058 17.5514 9.31606 17.5514C9.21312 17.5514 9.11018 17.5514 8.95577 17.5514C8.95577 17.4485 8.95577 17.3456 8.95577 17.2426C8.95577 13.4853 8.95577 9.72792 8.95577 5.97057C8.95577 5.0441 9.419 4.58086 10.3455 4.58086C13.9484 4.58086 17.5514 4.58086 21.1543 4.58086C21.2572 4.58086 21.3087 4.58086 21.4116 4.58086C21.4116 5.97057 21.4116 7.3088 21.4116 8.64704C21.4116 9.16175 21.5146 9.62498 21.8234 10.0367C22.2866 10.6544 22.9043 10.9632 23.6764 10.9632C24.8602 10.9632 26.0955 10.9632 27.2793 10.9632C27.3822 10.9632 27.4852 10.9632 27.6396 10.9632C27.6396 11.0662 27.6396 11.1691 27.6396 11.272C27.6396 17.1912 27.6911 23.1617 27.6911 29.0809C27.6911 29.9559 27.1764 30.4191 26.3014 30.4191ZM13.6396 22.5956C13.6396 21.0515 14.6175 19.8676 16.1616 19.8676C17.7572 19.8676 18.6322 21.0515 18.6322 22.4926C18.6322 24.1912 17.6028 25.272 16.0587 25.272C14.5661 25.272 13.6396 24.0882 13.6396 22.5956ZM22.1322 24.2426C22.4925 24.2426 22.9043 24.1397 23.1102 24.0882L23.2646 25.0147C23.0587 25.1176 22.544 25.272 21.9264 25.272C20.1249 25.272 19.1984 24.1397 19.1984 22.647C19.1984 20.8456 20.4852 19.8676 22.0293 19.8676C22.6469 19.8676 23.1102 19.9706 23.3161 20.125L23.0587 21.0515C22.8014 20.9485 22.4925 20.8456 22.0808 20.8456C21.1543 20.8456 20.4337 21.4117 20.4337 22.5956C20.4852 23.625 21.1028 24.2426 22.1322 24.2426Z" fill="#0A6AAF"/>
<path d="M17.4485 22.5441C17.4485 21.6176 16.9853 20.7941 16.1618 20.7941C15.3382 20.7941 14.875 21.5662 14.875 22.5956C14.875 23.625 15.3382 24.3456 16.1618 24.3456C16.9853 24.2941 17.4485 23.522 17.4485 22.5441Z" fill="#0A6AAF"/>
<path d="M11.8893 22.4412C11.8893 21.3603 11.2717 20.7941 10.2422 20.7941C9.98489 20.7941 9.83048 20.7941 9.72754 20.8456V24.2426C9.83048 24.2426 9.98489 24.2426 10.1393 24.2426C11.1687 24.2941 11.8893 23.7279 11.8893 22.4412Z" fill="#0A6AAF"/>
</g>
<defs>
<clipPath id="clip0">
<rect width="35" height="35" fill="white"/>
</clipPath>
</defs>
</svg>
