<svg width="16" height="16" viewBox="0 0 16 16" fill="none" xmlns="http://www.w3.org/2000/svg">
<path d="M13.4996 8.3802V8.0002V7.6152L14.4596 6.7752C14.6366 6.61923 14.7527 6.40572 14.7875 6.1724C14.8223 5.93909 14.7734 5.701 14.6496 5.5002L13.4696 3.5002C13.382 3.34833 13.2559 3.22219 13.1041 3.13443C12.9522 3.04667 12.78 3.00038 12.6046 3.0002C12.496 2.99937 12.3879 3.01626 12.2846 3.0502L11.0696 3.4602C10.8599 3.32081 10.6411 3.19553 10.4146 3.0852L10.1596 1.8252C10.1139 1.59501 9.98868 1.38822 9.80587 1.24105C9.62305 1.09389 9.39429 1.01571 9.15964 1.0202H6.81964C6.58499 1.01571 6.35623 1.09389 6.17341 1.24105C5.99059 1.38822 5.86536 1.59501 5.81964 1.8252L5.56464 3.0852C5.3366 3.1955 5.11612 3.32078 4.90464 3.4602L3.71464 3.0302C3.61029 3.00302 3.50222 2.99288 3.39464 3.0002C3.21928 3.00038 3.04704 3.04667 2.89522 3.13443C2.7434 3.22219 2.61732 3.34833 2.52964 3.5002L1.34964 5.5002C1.23293 5.7007 1.18956 5.93553 1.22696 6.16448C1.26436 6.39344 1.3802 6.60227 1.55464 6.7552L2.49964 7.6202V8.3852L1.55464 9.2252C1.37527 9.3792 1.25627 9.59177 1.21874 9.82518C1.18121 10.0586 1.22759 10.2977 1.34964 10.5002L2.52964 12.5002C2.61732 12.6521 2.7434 12.7782 2.89522 12.866C3.04704 12.9537 3.21928 13 3.39464 13.0002C3.50331 13.001 3.6114 12.9841 3.71464 12.9502L4.92964 12.5402C5.13941 12.6796 5.35823 12.8049 5.58464 12.9152L5.83964 14.1752C5.88536 14.4054 6.01059 14.6122 6.19341 14.7594C6.37623 14.9065 6.60499 14.9847 6.83964 14.9802H9.19964C9.43429 14.9847 9.66305 14.9065 9.84587 14.7594C10.0287 14.6122 10.1539 14.4054 10.1996 14.1752L10.4546 12.9152C10.6827 12.8049 10.9032 12.6796 11.1146 12.5402L12.3246 12.9502C12.4279 12.9841 12.536 13.001 12.6446 13.0002C12.82 13 12.9922 12.9537 13.1441 12.866C13.2959 12.7782 13.422 12.6521 13.5096 12.5002L14.6496 10.5002C14.7663 10.2997 14.8097 10.0649 14.7723 9.83592C14.7349 9.60697 14.6191 9.39814 14.4446 9.2452L13.4996 8.3802ZM12.6046 12.0002L10.8896 11.4202C10.4882 11.7603 10.0293 12.0261 9.53464 12.2052L9.17964 14.0002H6.81964L6.46464 12.2252C5.97385 12.041 5.5175 11.7756 5.11464 11.4402L3.39464 12.0002L2.21464 10.0002L3.57464 8.8002C3.48219 8.28263 3.48219 7.75277 3.57464 7.2352L2.21464 6.0002L3.39464 4.0002L5.10964 4.5802C5.51111 4.24015 5.96994 3.97433 6.46464 3.7952L6.81964 2.0002H9.17964L9.53464 3.7752C10.0254 3.95941 10.4818 4.22477 10.8846 4.5602L12.6046 4.0002L13.7846 6.0002L12.4246 7.2002C12.5171 7.71777 12.5171 8.24763 12.4246 8.7652L13.7846 10.0002L12.6046 12.0002Z" fill="#1D293F"/>
<path d="M8 11C7.40666 11 6.82664 10.8241 6.33329 10.4944C5.83994 10.1648 5.45543 9.69623 5.22836 9.14805C5.0013 8.59987 4.94189 7.99667 5.05765 7.41473C5.1734 6.83279 5.45912 6.29824 5.87868 5.87868C6.29824 5.45912 6.83279 5.1734 7.41473 5.05765C7.99667 4.94189 8.59987 5.0013 9.14805 5.22836C9.69623 5.45543 10.1648 5.83994 10.4944 6.33329C10.8241 6.82664 11 7.40666 11 8C11.004 8.39508 10.9292 8.78699 10.7798 9.15278C10.6305 9.51857 10.4096 9.85088 10.1303 10.1303C9.85088 10.4096 9.51857 10.6305 9.15278 10.7798C8.78699 10.9292 8.39508 11.004 8 11ZM8 6C7.73567 5.99384 7.47284 6.04137 7.22741 6.1397C6.98197 6.23803 6.75904 6.38512 6.57208 6.57208C6.38512 6.75904 6.23803 6.98197 6.1397 7.22741C6.04137 7.47284 5.99384 7.73567 6 8C5.99384 8.26433 6.04137 8.52716 6.1397 8.77259C6.23803 9.01803 6.38512 9.24097 6.57208 9.42793C6.75904 9.61488 6.98197 9.76198 7.22741 9.86031C7.47284 9.95864 7.73567 10.0062 8 10C8.26433 10.0062 8.52716 9.95864 8.77259 9.86031C9.01803 9.76198 9.24097 9.61488 9.42793 9.42793C9.61488 9.24097 9.76198 9.01803 9.86031 8.77259C9.95864 8.52716 10.0062 8.26433 10 8C10.0062 7.73567 9.95864 7.47284 9.86031 7.22741C9.76198 6.98197 9.61488 6.75904 9.42793 6.57208C9.24097 6.38512 9.01803 6.23803 8.77259 6.1397C8.52716 6.04137 8.26433 5.99384 8 6Z" fill="#1D293F"/>
</svg>
