<svg width="128" height="32" viewBox="0 0 128 32" fill="none" xmlns="http://www.w3.org/2000/svg">
<path d="M128 31H105V9H128L120.626 20.3569L128 31Z" fill="#BB9388"/>
<path d="M105 27V31L113 27H105Z" fill="#92756D"/>
<g filter="url(#filter0_d)">
<path d="M2 5H113V27H2V5Z" fill="#C8ABA3"/>
</g>
<path d="M33.067 21V13.3H37.566V14.565H34.42V16.281C34.7207 16.237 35.0653 16.215 35.454 16.215C36.2533 16.215 36.884 16.424 37.346 16.842C37.808 17.26 38.039 17.8247 38.039 18.536C38.039 19.3353 37.7787 19.955 37.258 20.395C36.7447 20.8277 36.015 21.044 35.069 21.044C34.893 21.044 34.5043 21.0367 33.903 21.022C33.7857 21.022 33.661 21.0183 33.529 21.011C33.397 21.011 33.2943 21.0073 33.221 21C33.155 21 33.1037 21 33.067 21ZM35.344 17.48C35.0653 17.48 34.7573 17.502 34.42 17.546V19.735C34.7793 19.7643 35.0653 19.779 35.278 19.779C36.224 19.779 36.697 19.3977 36.697 18.635C36.697 18.2757 36.5833 17.9933 36.356 17.788C36.1287 17.5827 35.7913 17.48 35.344 17.48ZM41.1768 18.217V21H39.8238V13.3C40.1465 13.3 40.4948 13.2963 40.8688 13.289C41.2502 13.2817 41.6315 13.278 42.0128 13.278C42.5555 13.278 43.0248 13.3477 43.4208 13.487C43.8242 13.619 44.1358 13.806 44.3558 14.048C44.5758 14.2827 44.7372 14.543 44.8398 14.829C44.9425 15.1077 44.9938 15.4157 44.9938 15.753C44.9938 16.4497 44.7445 17.04 44.2458 17.524C43.7545 18.008 43.0652 18.25 42.1778 18.25C41.7305 18.25 41.3968 18.239 41.1768 18.217ZM42.1448 14.543L41.1768 14.565V16.93C41.5655 16.9667 41.8845 16.985 42.1338 16.985C42.5665 16.985 42.9112 16.8787 43.1678 16.666C43.4318 16.4533 43.5638 16.1453 43.5638 15.742C43.5638 14.9427 43.0908 14.543 42.1448 14.543ZM45.9335 17.15C45.9335 16.028 46.3075 15.0857 47.0555 14.323C47.8181 13.5603 48.7788 13.179 49.9375 13.179C51.0961 13.179 52.0531 13.5457 52.8085 14.279C53.5711 15.0197 53.9525 15.9767 53.9525 17.15C53.9525 18.3013 53.5711 19.251 52.8085 19.999C52.0458 20.747 51.0888 21.121 49.9375 21.121C48.7788 21.121 47.8218 20.7543 47.0665 20.021C46.3111 19.2877 45.9335 18.3307 45.9335 17.15ZM47.3635 17.15C47.3635 17.9273 47.6091 18.5727 48.1005 19.086C48.5918 19.5993 49.2041 19.856 49.9375 19.856C50.7295 19.856 51.3565 19.5993 51.8185 19.086C52.2878 18.5727 52.5225 17.9273 52.5225 17.15C52.5225 16.3653 52.2731 15.7163 51.7745 15.203C51.2758 14.697 50.6635 14.444 49.9375 14.444C49.1968 14.444 48.5808 14.697 48.0895 15.203C47.6055 15.709 47.3635 16.358 47.3635 17.15ZM61.7332 21H60.3912V17.711H56.8712V21H55.5182V13.3H56.8712V16.446H60.3912V13.3H61.7332V21ZM65.8229 21.121C65.2289 21.121 64.7009 21 64.2389 20.758C63.7842 20.516 63.4322 20.2043 63.1829 19.823L63.9199 18.91C64.1619 19.1887 64.4515 19.416 64.7889 19.592C65.1262 19.768 65.4489 19.856 65.7569 19.856C66.1749 19.856 66.5159 19.757 66.7799 19.559C67.0439 19.3537 67.1759 19.0713 67.1759 18.712C67.1759 18.3967 67.0549 18.151 66.8129 17.975C66.5782 17.7917 66.2445 17.7 65.8119 17.7H65.0199V16.435H65.7679C66.0759 16.435 66.3362 16.3433 66.5489 16.16C66.7689 15.9693 66.8789 15.7237 66.8789 15.423C66.8789 15.115 66.7762 14.8767 66.5709 14.708C66.3729 14.532 66.1015 14.444 65.7569 14.444C65.1335 14.444 64.6129 14.7227 64.1949 15.28L63.4139 14.378C63.6779 14.0187 64.0335 13.729 64.4809 13.509C64.9282 13.289 65.4049 13.179 65.9109 13.179C66.6149 13.179 67.1759 13.366 67.5939 13.74C68.0119 14.114 68.2209 14.631 68.2209 15.291C68.2209 15.6137 68.1292 15.929 67.9459 16.237C67.7699 16.545 67.5169 16.7943 67.1869 16.985V17.018C67.6269 17.128 67.9569 17.3443 68.1769 17.667C68.4042 17.9823 68.5179 18.3747 68.5179 18.844C68.5179 19.526 68.2502 20.076 67.7149 20.494C67.1869 20.912 66.5562 21.121 65.8229 21.121ZM69.7274 17.15C69.7274 16.028 70.1014 15.0857 70.8494 14.323C71.6121 13.5603 72.5728 13.179 73.7314 13.179C74.8901 13.179 75.8471 13.5457 76.6024 14.279C77.3651 15.0197 77.7464 15.9767 77.7464 17.15C77.7464 18.3013 77.3651 19.251 76.6024 19.999C75.8398 20.747 74.8828 21.121 73.7314 21.121C72.5728 21.121 71.6158 20.7543 70.8604 20.021C70.1051 19.2877 69.7274 18.3307 69.7274 17.15ZM71.1574 17.15C71.1574 17.9273 71.4031 18.5727 71.8944 19.086C72.3858 19.5993 72.9981 19.856 73.7314 19.856C74.5234 19.856 75.1504 19.5993 75.6124 19.086C76.0818 18.5727 76.3164 17.9273 76.3164 17.15C76.3164 16.3653 76.0671 15.7163 75.5684 15.203C75.0698 14.697 74.4574 14.444 73.7314 14.444C72.9908 14.444 72.3748 14.697 71.8834 15.203C71.3994 15.709 71.1574 16.358 71.1574 17.15ZM79.3121 20.989V13.322C80.1041 13.2853 80.8448 13.267 81.5341 13.267C82.3848 13.267 83.0191 13.4357 83.4371 13.773C83.8551 14.1103 84.0641 14.576 84.0641 15.17C84.0641 15.9987 83.6975 16.5817 82.9641 16.919V16.941C83.3821 17.051 83.7121 17.26 83.9541 17.568C84.1961 17.8687 84.3171 18.2573 84.3171 18.734C84.3171 19.482 84.0605 20.054 83.5471 20.45C83.0338 20.846 82.3371 21.044 81.4571 21.044C80.5771 21.044 79.8621 21.0257 79.3121 20.989ZM81.6221 17.689H80.6651V19.724C81.0098 19.7607 81.3068 19.779 81.5561 19.779C82.4948 19.779 82.9641 19.4087 82.9641 18.668C82.9641 18.3453 82.8468 18.1033 82.6121 17.942C82.3775 17.7733 82.0475 17.689 81.6221 17.689ZM81.5121 14.532C81.1895 14.532 80.9071 14.543 80.6651 14.565V16.512H81.5781C81.9228 16.512 82.1978 16.424 82.4031 16.248C82.6158 16.072 82.7221 15.819 82.7221 15.489C82.7221 15.181 82.6158 14.9463 82.4031 14.785C82.1905 14.6163 81.8935 14.532 81.5121 14.532ZM93.4712 21H92.1292V13.3H93.4712V21ZM88.2022 17.15C88.0848 17.15 87.8355 17.1683 87.4542 17.205V19.724C87.5128 19.724 87.6302 19.7313 87.8062 19.746C87.9822 19.7533 88.1068 19.757 88.1802 19.757C89.1922 19.757 89.6982 19.306 89.6982 18.404C89.6982 17.9933 89.5698 17.6817 89.3132 17.469C89.0565 17.2563 88.6862 17.15 88.2022 17.15ZM86.1012 13.3H87.4542V15.94C87.7695 15.9033 88.0555 15.885 88.3122 15.885C89.2288 15.885 89.9255 16.105 90.4022 16.545C90.8862 16.9777 91.1282 17.5863 91.1282 18.371C91.1282 19.1923 90.8495 19.8413 90.2922 20.318C89.7422 20.7873 88.9832 21.022 88.0152 21.022C87.6045 21.022 87.2488 21.0183 86.9482 21.011C86.6548 21.0037 86.3725 21 86.1012 21V13.3ZM100.833 15.533L96.796 21H95.608V13.3H96.961V18.778L100.998 13.3H102.186V21H100.833V15.533ZM96.829 11.43H98.094C98.182 11.8553 98.4937 12.068 99.029 12.068C99.5863 12.068 99.8797 11.8553 99.909 11.43H101.174C101.167 11.892 100.958 12.2733 100.547 12.574C100.136 12.86 99.6303 13.003 99.029 13.003C98.3837 13.003 97.863 12.8637 97.467 12.585C97.0783 12.299 96.8657 11.914 96.829 11.43Z" fill="#1D293F"/>
<defs>
<filter id="filter0_d" x="0" y="0" width="121" height="32" filterUnits="userSpaceOnUse" color-interpolation-filters="sRGB">
<feFlood flood-opacity="0" result="BackgroundImageFix"/>
<feColorMatrix in="SourceAlpha" type="matrix" values="0 0 0 0 0 0 0 0 0 0 0 0 0 0 0 0 0 0 127 0"/>
<feOffset dx="3"/>
<feGaussianBlur stdDeviation="2.5"/>
<feColorMatrix type="matrix" values="0 0 0 0 0 0 0 0 0 0 0 0 0 0 0 0 0 0 0.05 0"/>
<feBlend mode="normal" in2="BackgroundImageFix" result="effect1_dropShadow"/>
<feBlend mode="normal" in="SourceGraphic" in2="effect1_dropShadow" result="shape"/>
</filter>
</defs>
</svg>
