<svg width="112" height="32" viewBox="0 0 112 32" fill="none" xmlns="http://www.w3.org/2000/svg">
<path d="M112 31H89V9H112L104.626 20.3569L112 31Z" fill="#EDC360"/>
<path d="M89 27V31L97 27H89Z" fill="#B2944C"/>
<g filter="url(#filter0_d)">
<rect x="2" y="5" width="95" height="22" fill="#FFD166"/>
</g>
<path d="M35.1275 21.121C34.5335 21.121 34.0055 21 33.5435 20.758C33.0889 20.516 32.7369 20.2043 32.4875 19.823L33.2245 18.91C33.4665 19.1887 33.7562 19.416 34.0935 19.592C34.4309 19.768 34.7535 19.856 35.0615 19.856C35.4795 19.856 35.8205 19.757 36.0845 19.559C36.3485 19.3537 36.4805 19.0713 36.4805 18.712C36.4805 18.3967 36.3595 18.151 36.1175 17.975C35.8829 17.7917 35.5492 17.7 35.1165 17.7H34.3245V16.435H35.0725C35.3805 16.435 35.6409 16.3433 35.8535 16.16C36.0735 15.9693 36.1835 15.7237 36.1835 15.423C36.1835 15.115 36.0809 14.8767 35.8755 14.708C35.6775 14.532 35.4062 14.444 35.0615 14.444C34.4382 14.444 33.9175 14.7227 33.4995 15.28L32.7185 14.378C32.9825 14.0187 33.3382 13.729 33.7855 13.509C34.2329 13.289 34.7095 13.179 35.2155 13.179C35.9195 13.179 36.4805 13.366 36.8985 13.74C37.3165 14.114 37.5255 14.631 37.5255 15.291C37.5255 15.6137 37.4339 15.929 37.2505 16.237C37.0745 16.545 36.8215 16.7943 36.4915 16.985V17.018C36.9315 17.128 37.2615 17.3443 37.4815 17.667C37.7089 17.9823 37.8225 18.3747 37.8225 18.844C37.8225 19.526 37.5549 20.076 37.0195 20.494C36.4915 20.912 35.8609 21.121 35.1275 21.121ZM39.0321 17.15C39.0321 16.028 39.4061 15.0857 40.1541 14.323C40.9168 13.5603 41.8774 13.179 43.0361 13.179C44.1948 13.179 45.1518 13.5457 45.9071 14.279C46.6698 15.0197 47.0511 15.9767 47.0511 17.15C47.0511 18.3013 46.6698 19.251 45.9071 19.999C45.1444 20.747 44.1874 21.121 43.0361 21.121C41.8774 21.121 40.9204 20.7543 40.1651 20.021C39.4098 19.2877 39.0321 18.3307 39.0321 17.15ZM40.4621 17.15C40.4621 17.9273 40.7078 18.5727 41.1991 19.086C41.6904 19.5993 42.3028 19.856 43.0361 19.856C43.8281 19.856 44.4551 19.5993 44.9171 19.086C45.3864 18.5727 45.6211 17.9273 45.6211 17.15C45.6211 16.3653 45.3718 15.7163 44.8731 15.203C44.3744 14.697 43.7621 14.444 43.0361 14.444C42.2954 14.444 41.6794 14.697 41.1881 15.203C40.7041 15.709 40.4621 16.358 40.4621 17.15ZM54.244 21H52.902V14.565H50.658L50.504 16.017C50.416 16.897 50.3023 17.6487 50.163 18.272C50.0237 18.8953 49.8697 19.394 49.701 19.768C49.5323 20.142 49.3307 20.428 49.096 20.626C48.8687 20.824 48.6303 20.9487 48.381 21C48.139 21.044 47.8567 21.044 47.534 21L47.567 19.658C47.7283 19.68 47.8603 19.6727 47.963 19.636C48.0657 19.5993 48.1867 19.4967 48.326 19.328C48.48 19.1373 48.6047 18.8843 48.7 18.569C48.964 17.7843 49.1583 16.5413 49.283 14.84L49.393 13.3H54.244V21ZM55.8007 17.15C55.8007 16.028 56.1747 15.0857 56.9227 14.323C57.6853 13.5603 58.646 13.179 59.8047 13.179C60.9633 13.179 61.9203 13.5457 62.6757 14.279C63.4383 15.0197 63.8197 15.9767 63.8197 17.15C63.8197 18.3013 63.4383 19.251 62.6757 19.999C61.913 20.747 60.956 21.121 59.8047 21.121C58.646 21.121 57.689 20.7543 56.9337 20.021C56.1783 19.2877 55.8007 18.3307 55.8007 17.15ZM57.2307 17.15C57.2307 17.9273 57.4763 18.5727 57.9677 19.086C58.459 19.5993 59.0713 19.856 59.8047 19.856C60.5967 19.856 61.2237 19.5993 61.6857 19.086C62.155 18.5727 62.3897 17.9273 62.3897 17.15C62.3897 16.3653 62.1403 15.7163 61.6417 15.203C61.143 14.697 60.5307 14.444 59.8047 14.444C59.064 14.444 58.448 14.697 57.9567 15.203C57.4727 15.709 57.2307 16.358 57.2307 17.15ZM66.5709 14.565H64.0739V13.3H70.4209V14.565H67.9239V21H66.5709V14.565ZM70.6679 17.15C70.6679 16.028 71.0419 15.0857 71.7899 14.323C72.5525 13.5603 73.5132 13.179 74.6719 13.179C75.8305 13.179 76.7875 13.5457 77.5429 14.279C78.3055 15.0197 78.6869 15.9767 78.6869 17.15C78.6869 18.3013 78.3055 19.251 77.5429 19.999C76.7802 20.747 75.8232 21.121 74.6719 21.121C73.5132 21.121 72.5562 20.7543 71.8009 20.021C71.0455 19.2877 70.6679 18.3307 70.6679 17.15ZM72.0979 17.15C72.0979 17.9273 72.3435 18.5727 72.8349 19.086C73.3262 19.5993 73.9385 19.856 74.6719 19.856C75.4639 19.856 76.0909 19.5993 76.5529 19.086C77.0222 18.5727 77.2569 17.9273 77.2569 17.15C77.2569 16.3653 77.0075 15.7163 76.5089 15.203C76.0102 14.697 75.3979 14.444 74.6719 14.444C73.9312 14.444 73.3152 14.697 72.8239 15.203C72.3399 15.709 72.0979 16.358 72.0979 17.15ZM85.4775 15.533L81.4405 21H80.2525V13.3H81.6055V18.778L85.6425 13.3H86.8305V21H85.4775V15.533ZM81.4735 11.43H82.7385C82.8265 11.8553 83.1382 12.068 83.6735 12.068C84.2309 12.068 84.5242 11.8553 84.5535 11.43H85.8185C85.8112 11.892 85.6022 12.2733 85.1915 12.574C84.7809 12.86 84.2749 13.003 83.6735 13.003C83.0282 13.003 82.5075 12.8637 82.1115 12.585C81.7229 12.299 81.5102 11.914 81.4735 11.43Z" fill="#1D293F"/>
<defs>
<filter id="filter0_d" x="0" y="0" width="105" height="32" filterUnits="userSpaceOnUse" color-interpolation-filters="sRGB">
<feFlood flood-opacity="0" result="BackgroundImageFix"/>
<feColorMatrix in="SourceAlpha" type="matrix" values="0 0 0 0 0 0 0 0 0 0 0 0 0 0 0 0 0 0 127 0"/>
<feOffset dx="3"/>
<feGaussianBlur stdDeviation="2.5"/>
<feColorMatrix type="matrix" values="0 0 0 0 0 0 0 0 0 0 0 0 0 0 0 0 0 0 0.05 0"/>
<feBlend mode="normal" in2="BackgroundImageFix" result="effect1_dropShadow"/>
<feBlend mode="normal" in="SourceGraphic" in2="effect1_dropShadow" result="shape"/>
</filter>
</defs>
</svg>
