<svg width="147" height="32" viewBox="0 0 147 32" fill="none" xmlns="http://www.w3.org/2000/svg">
<path d="M147 31H124V9H147L139.626 20.3569L147 31Z" fill="#E0E0E0"/>
<path d="M124 27V31L132 27H124Z" fill="#B6B6B6"/>
<g filter="url(#filter0_d)">
<path d="M2 5H132V27H2V5Z" fill="#EBEBEB"/>
</g>
<path d="M47.413 19.24L47.93 20.252C47.688 20.5087 47.3397 20.7177 46.885 20.879C46.4377 21.0403 45.9647 21.121 45.466 21.121C44.2927 21.121 43.3357 20.758 42.595 20.032C41.8617 19.306 41.495 18.3453 41.495 17.15C41.495 16.006 41.8433 15.0563 42.54 14.301C43.2293 13.553 44.1937 13.179 45.433 13.179C46.4157 13.179 47.1967 13.4393 47.776 13.96L47.171 14.961C46.6503 14.6163 46.071 14.444 45.433 14.444C44.6997 14.444 44.0983 14.6897 43.629 15.181C43.1597 15.6723 42.925 16.3287 42.925 17.15C42.925 17.9567 43.1707 18.6093 43.662 19.108C44.1607 19.6067 44.8023 19.856 45.587 19.856C46.2617 19.856 46.8703 19.6507 47.413 19.24ZM53.84 21H49.275V13.3H53.73V14.565H50.628V16.479H53.4V17.744H50.628V19.735H53.84V21ZM56.9552 18.217V21H55.6022V13.3C55.9248 13.3 56.2732 13.2963 56.6472 13.289C57.0285 13.2817 57.4098 13.278 57.7912 13.278C58.3338 13.278 58.8032 13.3477 59.1992 13.487C59.6025 13.619 59.9142 13.806 60.1342 14.048C60.3542 14.2827 60.5155 14.543 60.6182 14.829C60.7208 15.1077 60.7722 15.4157 60.7722 15.753C60.7722 16.4497 60.5228 17.04 60.0242 17.524C59.5328 18.008 58.8435 18.25 57.9562 18.25C57.5088 18.25 57.1752 18.239 56.9552 18.217ZM57.9232 14.543L56.9552 14.565V16.93C57.3438 16.9667 57.6628 16.985 57.9122 16.985C58.3448 16.985 58.6895 16.8787 58.9462 16.666C59.2102 16.4533 59.3422 16.1453 59.3422 15.742C59.3422 14.9427 58.8692 14.543 57.9232 14.543ZM66.9025 21H62.3375V13.3H66.7925V14.565H63.6905V16.479H66.4625V17.744H63.6905V19.735H66.9025V21ZM68.6647 21V13.3H73.1637V14.565H70.0177V16.281C70.3183 16.237 70.663 16.215 71.0517 16.215C71.851 16.215 72.4817 16.424 72.9437 16.842C73.4057 17.26 73.6367 17.8247 73.6367 18.536C73.6367 19.3353 73.3763 19.955 72.8557 20.395C72.3423 20.8277 71.6127 21.044 70.6667 21.044C70.4907 21.044 70.102 21.0367 69.5007 21.022C69.3833 21.022 69.2587 21.0183 69.1267 21.011C68.9947 21.011 68.892 21.0073 68.8187 21C68.7527 21 68.7013 21 68.6647 21ZM70.9417 17.48C70.663 17.48 70.355 17.502 70.0177 17.546V19.735C70.377 19.7643 70.663 19.779 70.8757 19.779C71.8217 19.779 72.2947 19.3977 72.2947 18.635C72.2947 18.2757 72.181 17.9933 71.9537 17.788C71.7263 17.5827 71.389 17.48 70.9417 17.48ZM76.7745 18.217V21H75.4215V13.3C75.7442 13.3 76.0925 13.2963 76.4665 13.289C76.8478 13.2817 77.2292 13.278 77.6105 13.278C78.1532 13.278 78.6225 13.3477 79.0185 13.487C79.4218 13.619 79.7335 13.806 79.9535 14.048C80.1735 14.2827 80.3348 14.543 80.4375 14.829C80.5402 15.1077 80.5915 15.4157 80.5915 15.753C80.5915 16.4497 80.3422 17.04 79.8435 17.524C79.3522 18.008 78.6628 18.25 77.7755 18.25C77.3282 18.25 76.9945 18.239 76.7745 18.217ZM77.7425 14.543L76.7745 14.565V16.93C77.1632 16.9667 77.4822 16.985 77.7315 16.985C78.1642 16.985 78.5088 16.8787 78.7655 16.666C79.0295 16.4533 79.1615 16.1453 79.1615 15.742C79.1615 14.9427 78.6885 14.543 77.7425 14.543ZM86.9748 21H85.6328V18.338H84.5218L82.7948 21H81.2768L83.2458 18.063C82.8352 17.8577 82.5052 17.5717 82.2558 17.205C82.0138 16.8383 81.8928 16.413 81.8928 15.929C81.8928 15.159 82.1568 14.5247 82.6848 14.026C83.2128 13.52 84.0048 13.267 85.0608 13.267C85.0755 13.267 85.3982 13.2743 86.0288 13.289C86.3515 13.2963 86.6668 13.3 86.9748 13.3V21ZM84.4008 17.073H85.6328V14.565C85.2588 14.543 84.9765 14.532 84.7858 14.532C84.3458 14.532 83.9902 14.653 83.7188 14.895C83.4548 15.137 83.3228 15.4523 83.3228 15.841C83.3228 16.1637 83.4218 16.435 83.6198 16.655C83.8252 16.8677 84.0855 17.007 84.4008 17.073ZM95.322 21H93.98V17.711H90.46V21H89.107V13.3H90.46V16.446H93.98V13.3H95.322V21ZM103.669 21H102.327V17.711H98.8067V21H97.4537V13.3H98.8067V16.446H102.327V13.3H103.669V21ZM113.17 21H111.828V13.3H113.17V21ZM107.901 17.15C107.784 17.15 107.535 17.1683 107.153 17.205V19.724C107.212 19.724 107.329 19.7313 107.505 19.746C107.681 19.7533 107.806 19.757 107.879 19.757C108.891 19.757 109.397 19.306 109.397 18.404C109.397 17.9933 109.269 17.6817 109.012 17.469C108.756 17.2563 108.385 17.15 107.901 17.15ZM105.8 13.3H107.153V15.94C107.469 15.9033 107.755 15.885 108.011 15.885C108.928 15.885 109.625 16.105 110.101 16.545C110.585 16.9777 110.827 17.5863 110.827 18.371C110.827 19.1923 110.549 19.8413 109.991 20.318C109.441 20.7873 108.682 21.022 107.714 21.022C107.304 21.022 106.948 21.0183 106.647 21.011C106.354 21.0037 106.072 21 105.8 21V13.3ZM120.532 15.533L116.495 21H115.307V13.3H116.66V18.778L120.697 13.3H121.885V21H120.532V15.533ZM116.528 11.43H117.793C117.881 11.8553 118.193 12.068 118.728 12.068C119.286 12.068 119.579 11.8553 119.608 11.43H120.873C120.866 11.892 120.657 12.2733 120.246 12.574C119.836 12.86 119.33 13.003 118.728 13.003C118.083 13.003 117.562 12.8637 117.166 12.585C116.778 12.299 116.565 11.914 116.528 11.43Z" fill="#1D293F"/>
<defs>
<filter id="filter0_d" x="0" y="0" width="140" height="32" filterUnits="userSpaceOnUse" color-interpolation-filters="sRGB">
<feFlood flood-opacity="0" result="BackgroundImageFix"/>
<feColorMatrix in="SourceAlpha" type="matrix" values="0 0 0 0 0 0 0 0 0 0 0 0 0 0 0 0 0 0 127 0"/>
<feOffset dx="3"/>
<feGaussianBlur stdDeviation="2.5"/>
<feColorMatrix type="matrix" values="0 0 0 0 0 0 0 0 0 0 0 0 0 0 0 0 0 0 0.05 0"/>
<feBlend mode="normal" in2="BackgroundImageFix" result="effect1_dropShadow"/>
<feBlend mode="normal" in="SourceGraphic" in2="effect1_dropShadow" result="shape"/>
</filter>
</defs>
</svg>
